# xmcd CD database file
#
# Track frame offsets:
#	150
#	23395
#	51320
#	71180
#	107565
#	149252
#	168622
#	185137
#	210685
#
# Disc length: 3013 seconds
#
# Revision: 0
# Processed by: cddbd v1.5.1PL0 Copyright (c) Steve Scherf et al.
# Submitted via: CDex 1.51
#
DISCID=850bc309
DTITLE=UNC JAZZ LAB BAND - Alive XIV:Paper Spoons
DYEAR=1996
DGENRE=Jazz
TTITLE0=Prince of Darkness
TTITLE1=Window's Walk
TTITLE2=My Funny Valentine
TTITLE3=Paper Spoons
TTITLE4=La Nina Nueva
TTITLE5=It's All Right With Me
TTITLE6=Big Al Meets the Barnyard Gals
TTITLE7=Hey There
TTITLE8=Limehouse Blues
EXTD=YEAR: 1996
EXTT0=
EXTT1=
EXTT2=
EXTT3=
EXTT4=
EXTT5=
EXTT6=
EXTT7=
EXTT8=
PLAYORDER=
